# xmcd
#
# Track frame offsets:
# 150
# 15902
# 33650
# 48007
# 65497
# 83075
# 100670
# 121890
# 143655
# 158927
# 177272
# 197042
# 217732
# 234657
# 251577
# 268660
# 286855
# 308105
#
# Disc length: 4347 seconds
#
#
# Revision: 0
# Processed by: cddbd v1.5.1PL2 Copyright (c) Steve Scherf et al.
# Submitted via: FreeRIP 2.944 
#
DISCID=eb10f912
DTITLE=Hit Disc America Christmas
DYEAR=1900
DGENRE=
TTITLE0=Garth Brooks-Sleight Ride
TTITLE1=Reba McEntire-Secret of giving
TTITLE2=Paul Brant-Six tonns of toys
TTITLE3=SHeDAISY-Deck The Halls
TTITLE4=Shania Twain- God Bless Child
TTITLE5=Mark Wills-New Star Shining
TTITLE6=Michael Martin Murphey-The First Noel
TTITLE7=Sara Evans- O Come All Ye Faithfull
TTITLE8=George Strait-I Know I Want For Christmas
TTITLE9=Christina Aguilera-The Christmas Song
TTITLE10=Avant-Christmas Came To The Ghetto
TTITLE11=Peabo Bryson-Somebody In Your Life
TTITLE12=Nathalie Cole with London Symphony Orchestra and Nat King Cole
TTITLE13=John Popper with Eric Clapton-Christmas Blues
TTITLE14=Ringo Starr- I Wanna Be Santa Claus
TTITLE15=Sheryl Crow with Eric Calpton-Merry Christmas Baby
TTITLE16=Kenny G-Auld Lang Syne
TTITLE17=Four Play with vocals by Eric Benett-The Christmas song
EXTD=
EXTT0=
EXTT1=
EXTT2=
EXTT3=
EXTT4=
EXTT5=
EXTT6=
EXTT7=
EXTT8=
EXTT9=
EXTT10=
EXTT11=
EXTT12=
EXTT13=
EXTT14=
EXTT15=
EXTT16=
EXTT17=
PLAYORDER=
